<?xml version="1.0" standalone="no"?>
<!DOCTYPE svg PUBLIC "-//W3C//DTD SVG 20010904//EN"
        "http://www.w3.org/TR/2001/REC-SVG-20010904/DTD/svg10.dtd">
<svg version="1.0" xmlns="http://www.w3.org/2000/svg"
     width="2127.000000pt" height="972.000000pt" viewBox="0 0 2127.000000 972.000000"
     preserveAspectRatio="xMidYMid meet">
    <g transform="translate(0.000000,972.000000) scale(0.100000,-0.100000)"
       fill="#000" stroke="none">
        <path  d="M14975 9025 c-346 -66 -604 -182 -932 -422 -317 -231 -594 -513 -881
                -898 -212 -284 -362 -526 -538 -870 -362 -709 -605 -1429 -729 -2168 l-33
                -198 -40 -37 c-22 -20 -85 -89 -139 -152 -109 -126 -154 -169 -226 -219 -164
                -112 -306 -64 -354 122 -19 77 -13 236 17 412 11 66 20 145 20 176 0 48 -4 59
-30 86 -34 35 -72 44 -139 31 -56 -10 -93 -36 -106 -74 -5 -16 -10 -30 -10
-31 0 -1 -41 14 -90 35 -78 31 -103 36 -191 40 -55 2 -126 -1 -157 -8 -81 -16
-221 -88 -309 -158 -137 -109 -210 -215 -270 -392 -52 -157 -208 -350 -281
-350 -95 0 -123 129 -92 421 22 205 24 359 6 421 -17 61 -69 121 -123 143 -62
25 -187 23 -259 -4 -122 -46 -248 -159 -367 -328 -72 -101 -88 -120 -99 -110
-3 3 -9 63 -15 133 -5 70 -15 142 -23 161 -25 60 -112 80 -191 44 -52 -24 -97
-77 -179 -215 -36 -60 -89 -138 -118 -174 -87 -108 -231 -208 -326 -227 -30
-7 -33 -5 -27 11 13 34 26 127 26 192 0 144 -57 306 -127 359 -51 39 -100 52
-199 53 -164 0 -311 -52 -414 -146 l-58 -55 -129 -19 c-70 -10 -218 -35 -328
-55 -396 -72 -451 -78 -461 -50 -9 21 8 57 105 235 275 503 482 1063 585 1580
54 271 68 399 73 681 6 284 -3 415 -44 624 -108 561 -400 971 -846 1190 -532
261 -1277 242 -2167 -55 -1377 -459 -2918 -1544 -3566 -2512 -91 -137 -166
-284 -184 -362 -21 -95 42 -157 145 -141 71 10 95 40 158 197 119 298 316 577
637 898 653 655 1735 1330 2717 1696 349 130 803 245 1108 280 188 22 487 15
627 -15 287 -62 500 -171 669 -342 453 -461 558 -1303 293 -2362 -104 -417
-287 -897 -488 -1282 -109 -208 -144 -264 -205 -328 -80 -84 -139 -109 -381
-161 -656 -142 -1209 -315 -1880 -590 -168 -68 -183 -72 -204 -51 -13 14 -16
41 -16 171 0 85 3 153 7 152 5 -1 22 5 39 14 22 12 43 40 71 94 l40 77 12 -36
c15 -44 87 -127 111 -127 18 0 42 46 74 145 9 28 19 56 21 64 4 9 15 0 34 -26
36 -50 101 -104 120 -101 16 3 45 106 57 194 l6 52 36 -40 c39 -43 129 -95
143 -81 4 4 11 61 15 125 l7 116 47 -32 c42 -29 136 -63 146 -54 4 4 -13 177
-23 227 l-6 34 29 -20 c59 -40 184 -69 184 -42 0 21 -49 198 -60 220 -13 23
-13 23 40 4 47 -17 170 -21 170 -5 0 13 -70 171 -86 195 -21 30 -18 32 39 22
65 -12 150 1 155 23 1 8 -27 59 -63 113 l-65 97 65 0 c63 0 145 23 145 41 0
11 -125 155 -151 173 -19 13 -17 14 33 21 61 9 137 41 145 63 6 15 -31 51
-130 124 l-57 43 42 11 c65 17 148 68 148 91 0 10 -163 107 -199 118 -24 7
-22 9 25 32 52 27 124 89 124 109 0 10 -102 55 -193 84 l-38 12 39 28 c47 34
102 99 102 120 0 17 -95 45 -196 56 l-51 6 42 39 c38 35 95 133 83 144 -2 3
-59 8 -125 11 l-121 7 34 49 c45 67 68 148 42 148 -24 0 -193 -20 -221 -26
l-29 -6 27 40 c25 39 55 156 42 169 -6 5 -128 -24 -229 -54 -17 -5 -17 -3 -2
38 16 46 24 152 12 165 -8 8 -123 -36 -187 -72 -24 -13 -45 -24 -47 -24 -1 0
2 15 7 32 19 66 6 171 -22 176 -8 1 -59 -26 -112 -62 l-97 -65 0 62 c0 111
-26 145 -47 64 -13 -48 -143 -252 -143 -225 0 10 24 55 53 100 60 92 87 142
87 158 0 5 -11 10 -24 10 -17 0 -46 -21 -90 -62 l-65 -63 -5 40 c-3 22 -10
105 -15 185 -4 80 -14 157 -21 172 -35 75 -188 76 -237 2 -17 -27 -18 -112
-23 -2021 -5 -1976 -5 -1993 -25 -2012 -11 -11 -88 -56 -172 -100 -347 -182
-710 -424 -918 -610 -104 -93 -254 -259 -310 -342 -239 -355 -196 -735 98
-875 90 -43 179 -62 327 -70 408 -23 915 137 1495 471 884 509 1676 1216 2298
2050 141 189 160 211 210 237 21 10 147 42 280 69 257 52 620 132 675 148 17
5 32 8 32 7 0 -2 -11 -28 -23 -57 -57 -131 -75 -263 -54 -385 34 -186 140
-297 312 -327 163 -28 358 55 466 198 38 50 46 56 122 80 146 48 237 98 321
176 99 92 216 232 263 315 l38 66 7 -214 c22 -616 17 -557 47 -590 21 -23 37
-30 82 -35 104 -10 131 19 199 212 123 350 274 648 386 760 57 58 91 75 105
54 24 -39 19 -233 -12 -417 -12 -75 -11 -221 1 -300 22 -134 79 -230 164 -275
32 -17 58 -22 116 -22 103 1 175 38 288 150 49 49 82 76 82 66 0 -34 49 -118
92 -157 59 -55 141 -85 248 -91 218 -13 374 77 524 305 35 53 74 117 87 141
l24 43 13 -78 c21 -130 74 -223 147 -261 127 -67 363 -55 522 25 121 62 205
148 320 330 40 62 53 79 49 57 -28 -148 -38 -656 -17 -885 82 -889 436 -1440
1056 -1643 187 -62 369 -79 690 -67 223 9 336 28 520 87 767 246 1464 783
1954 1503 97 143 269 429 346 575 32 61 69 129 82 153 l24 43 38 -58 c77 -119
214 -218 347 -249 112 -26 319 -15 455 24 293 85 595 254 836 469 51 46 85 69
87 61 2 -7 12 -53 21 -103 43 -231 140 -429 258 -524 23 -18 71 -47 106 -64
53 -25 79 -31 161 -35 181 -9 290 37 424 179 95 99 158 195 220 332 l42 94 18
-51 c40 -113 111 -203 196 -247 63 -34 217 -34 302 0 72 28 157 104 199 177
17 30 33 53 35 51 2 -2 10 -39 18 -83 17 -98 34 -140 77 -189 83 -94 235 -108
392 -38 83 37 205 129 299 223 175 177 301 400 227 400 -29 0 -73 -40 -183
-168 -101 -116 -158 -168 -253 -229 -117 -76 -211 -80 -253 -10 -41 67 -44
120 -28 467 18 376 14 463 -21 491 -49 40 -182 24 -215 -25 -22 -34 -72 -204
-101 -344 -49 -234 -116 -396 -201 -491 -87 -97 -148 -91 -203 21 -17 35 -38
95 -46 133 -18 86 -20 317 -3 431 9 62 9 89 0 108 -17 38 -58 60 -113 60 -59
0 -96 -24 -122 -77 -30 -61 -57 -212 -57 -327 l0 -105 -58 -107 c-150 -282
-341 -482 -494 -519 -45 -10 -53 -9 -103 15 -63 31 -100 76 -152 186 -70 148
-143 513 -128 644 5 40 27 108 65 196 231 541 331 853 429 1330 127 624 174
1120 141 1487 -19 210 -80 380 -171 474 -60 61 -100 81 -179 87 -133 9 -223
-60 -308 -239 -201 -419 -302 -1180 -302 -2269 0 -392 24 -1001 46 -1175 l5
-40 -73 -41 c-40 -22 -145 -85 -233 -138 -466 -283 -790 -380 -971 -291 -65
32 -137 109 -172 183 -24 50 -27 69 -27 157 0 156 33 193 170 194 81 1 296 28
367 46 172 43 276 152 247 258 -21 79 -91 125 -223 148 -87 15 -290 7 -370
-15 -244 -67 -426 -254 -488 -500 -49 -194 -340 -682 -671 -1121 -384 -511
-802 -853 -1427 -1166 -334 -167 -538 -237 -805 -275 -303 -42 -604 32 -836
206 -92 69 -210 196 -275 296 -112 171 -219 431 -263 639 -45 208 -56 351 -56
725 0 311 3 376 23 525 133 1005 416 1881 870 2695 448 804 958 1376 1523
1711 144 85 232 126 380 175 100 33 126 38 214 38 79 1 107 -3 135 -18 127
-67 180 -199 180 -449 0 -433 -146 -880 -671 -2049 -37 -82 -36 -122 4 -152
38 -28 149 -30 191 -3 41 27 94 116 224 377 242 484 426 1027 508 1505 37 213
39 466 6 588 -53 196 -171 310 -372 361 -93 24 -276 29 -375 11z m3903 -1128
c77 -82 121 -363 102 -648 -33 -484 -92 -877 -205 -1359 -68 -294 -190 -692
-275 -900 l-30 -75 5 105 c3 58 7 191 10 295 21 707 72 1390 151 2018 36 288
67 421 120 514 42 73 84 90 122 50z m-15481 -810 c-13 -29 -45 -81 -70 -115
-25 -35 -49 -72 -52 -82 -9 -30 -25 -14 -25 24 0 25 17 60 62 127 33 52 71
114 82 139 l21 45 3 -43 c2 -29 -4 -59 -21 -95z m258 16 c-4 -21 -11 -43 -17
-50 -5 -7 -6 -18 -2 -24 4 -8 3 -9 -4 -5 -7 4 -12 2 -12 -4 0 -7 -32 -45 -72
-86 -50 -52 -79 -74 -96 -74 -24 0 -24 0 -7 28 10 15 50 63 90 107 39 44 81
95 94 113 29 42 35 40 26 -5z m206 -140 c-21 -42 -66 -86 -175 -171 l-68 -53
7 33 c9 41 29 63 132 145 45 35 90 77 100 91 26 40 30 4 4 -45z m204 -132 c-8
-17 -20 -31 -26 -31 -6 0 -20 -11 -31 -25 -11 -14 -55 -44 -97 -66 -42 -21
-103 -55 -136 -74 -69 -40 -80 -43 -65 -16 15 29 113 101 215 159 50 28 104
62 120 76 35 29 43 20 20 -23z m-556 -5 l24 -13 -35 -12 c-72 -24 -90 -64 -74
-168 l8 -51 -84 -82 c-46 -45 -94 -89 -107 -98 -13 -9 -32 -34 -42 -57 -15
-32 -19 -36 -19 -16 0 37 49 105 103 142 85 58 97 79 97 166 0 66 3 80 26 110
14 18 42 42 62 53 25 13 31 19 18 20 -11 0 -35 -12 -54 -26 l-34 -27 17 27
c30 46 54 54 94 32z m482 -164 c-11 -21 -32 -54 -47 -72 -29 -33 -231 -190
-246 -190 -22 0 0 25 89 107 54 48 124 114 157 145 34 31 62 55 64 53 2 -2 -6
-21 -17 -43z m-361 34 c0 -2 -34 -31 -75 -65 -92 -76 -153 -155 -195 -258 -17
-43 -38 -91 -46 -107 -18 -37 -18 -41 1 -26 8 6 18 9 24 6 5 -3 7 3 4 14 -7
25 73 174 140 262 28 37 52 66 54 65 1 -2 -6 -30 -16 -63 -10 -32 -28 -90 -40
-128 -30 -97 -101 -193 -125 -169 -3 3 -6 1 -6 -6 0 -8 7 -10 19 -6 13 4 20 0
24 -16 4 -16 11 -19 26 -14 17 5 21 2 21 -18 0 -20 4 -24 21 -20 15 4 22 0 26
-15 5 -19 8 -18 42 18 38 40 91 61 151 59 l35 -1 -35 -10 c-19 -5 -52 -14 -72
-19 -55 -14 -96 -53 -90 -84 3 -16 11 -25 23 -25 12 0 19 -7 19 -20 0 -12 7
-20 16 -20 12 0 15 -7 12 -25 -4 -20 -1 -25 14 -25 16 0 19 -5 14 -24 -5 -19
-1 -25 16 -30 18 -4 20 -8 10 -18 -17 -17 -15 -25 10 -31 18 -5 19 -8 8 -22
-11 -13 -10 -18 6 -30 15 -11 17 -16 7 -26 -17 -17 -16 -29 2 -29 8 0 15 -7
15 -15 0 -9 6 -12 15 -9 29 12 119 -19 181 -62 73 -50 94 -57 49 -16 -17 15
-26 24 -21 20 18 -14 29 -8 15 8 -12 15 -11 16 11 8 14 -4 87 -7 162 -5 115 2
141 -1 163 -15 36 -23 27 -26 -30 -9 -63 19 -120 19 -179 -1 -45 -15 -55 -15
-101 1 -20 7 -20 6 -1 -9 25 -20 56 -20 122 1 45 14 63 15 115 5 68 -12 109
-34 109 -58 0 -12 -7 -9 -32 10 -53 39 -108 50 -160 29 -24 -9 -66 -17 -95
-17 -55 -1 -61 -10 -13 -21 19 -4 44 0 76 14 25 12 65 21 88 20 39 -1 39 -1
11 -8 -16 -4 -49 -17 -72 -29 -58 -30 -81 -28 -149 13 -32 19 -62 35 -67 35
-4 0 -29 14 -53 31 -30 21 -64 34 -102 39 -65 9 -74 6 -46 -15 18 -14 18 -16
1 -29 -18 -14 -18 -15 0 -24 17 -10 17 -11 0 -30 -16 -18 -16 -20 -1 -33 13
-11 15 -11 14 2 -1 7 1 25 5 38 8 23 11 23 89 19 91 -5 114 -14 213 -89 87
-66 96 -75 54 -54 -105 53 -314 89 -373 64 -27 -11 -28 -13 -11 -31 16 -18 16
-19 -5 -25 -12 -3 -22 -10 -22 -15 0 -6 6 -8 14 -5 10 4 12 0 8 -15 -2 -11
-11 -22 -18 -25 -10 -4 -11 -10 -4 -23 8 -15 6 -20 -10 -25 -15 -5 -19 -12
-15 -27 5 -14 1 -21 -14 -25 -17 -4 -19 -9 -11 -24 9 -15 6 -20 -14 -25 -17
-4 -22 -11 -19 -25 4 -14 0 -19 -16 -19 -16 0 -20 -6 -18 -22 2 -18 -2 -22
-20 -20 -17 2 -20 -1 -16 -18 4 -16 1 -20 -20 -20 -20 0 -24 -4 -20 -20 4 -16
0 -20 -21 -20 -17 0 -26 -5 -26 -16 0 -11 -6 -15 -20 -11 -15 4 -20 0 -20 -13
0 -11 -4 -22 -10 -25 -6 -4 -4 -14 4 -28 24 -37 28 -88 12 -152 l-16 -60 6 81
c4 59 2 90 -9 116 -9 20 -13 38 -11 41 3 2 -2 7 -11 10 -19 8 -19 3 1 -53 18
-51 12 -115 -17 -194 l-19 -51 5 55 c4 30 11 71 17 92 10 34 3 136 -9 124 -3
-3 -14 -1 -23 4 -14 7 -19 5 -23 -11 -5 -17 -9 -19 -26 -10 -26 14 -31 14 -31
-4 0 -8 -7 -15 -15 -15 -11 0 -15 12 -15 50 0 45 3 50 25 56 16 4 25 13 25 26
0 17 3 18 15 8 12 -10 25 -6 71 21 59 37 134 101 134 117 0 5 7 13 16 16 9 4
14 13 10 21 -3 9 0 15 9 15 8 0 15 9 15 19 0 11 5 23 11 27 8 4 4 13 -12 25
l-24 19 33 0 c33 0 44 16 17 26 -24 10 -17 24 11 24 l26 0 -23 20 -24 19 23 1
c25 0 26 8 24 130 -3 95 -19 170 -38 170 -12 0 -12 4 -4 20 9 18 8 20 -16 20
-27 0 -27 0 -8 21 14 16 15 23 7 26 -7 3 -13 11 -13 19 0 21 -40 56 -57 50
-12 -5 -13 0 -8 22 5 24 2 30 -19 40 -16 7 -28 8 -31 2 -12 -20 -22 -9 -17 17
4 21 2 25 -12 20 -11 -5 -16 -1 -16 13 0 11 -7 20 -15 20 -9 0 -18 7 -22 16
-5 13 -9 12 -31 -8 l-25 -23 7 28 c6 27 -1 32 -51 30 -9 -1 -13 18 -12 66 1
36 3 58 6 49 5 -20 18 -23 28 -8 10 16 23 12 30 -11 5 -16 10 -18 20 -9 8 7
20 8 26 4 8 -4 9 -3 5 5 -5 7 -16 9 -28 5 -19 -6 -20 -3 -14 32 18 98 66 165
166 234 30 21 89 65 130 99 73 60 80 65 80 57z m630 -1 c0 -18 -39 -60 -78
-82 -57 -33 -252 -104 -252 -91 0 27 65 68 177 112 68 26 125 52 128 57 7 10
25 13 25 4z m-552 -44 c-11 -22 -27 -84 -37 -138 -13 -75 -26 -115 -55 -166
-45 -81 -131 -187 -151 -187 -26 0 -16 32 24 75 52 56 74 101 107 216 29 102
64 181 97 217 31 33 37 27 15 -17z m-108 -45 c-11 -24 -24 -76 -30 -115 -13
-92 -47 -162 -115 -237 -56 -62 -77 -56 -26 7 35 42 51 80 86 202 27 93 47
140 73 170 26 30 32 19 12 -27z m800 -126 c-16 -30 -126 -77 -218 -92 -77 -13
-83 -13 -98 4 -16 16 -15 18 7 27 13 5 69 18 124 29 55 12 118 28 140 36 54
20 57 19 45 -4z m119 -217 c-28 -33 -100 -56 -194 -60 -49 -2 -112 -5 -139 -7
l-50 -3 31 27 c29 26 38 28 157 35 69 4 140 11 158 15 49 12 52 11 37 -7z
m-569 -124 c-78 -11 -154 -41 -249 -99 -91 -55 -101 -58 -101 -32 0 10 -5 23
-11 29 -14 14 39 58 106 89 45 21 63 24 180 23 109 -1 121 -3 75 -10z m122
-24 c-17 -8 -65 -45 -105 -84 -41 -38 -92 -78 -114 -89 -42 -22 -148 -52 -182
-52 -35 0 -24 17 16 25 58 11 112 40 193 106 90 72 154 108 195 108 l30 0 -33
-14z m-117 -22 c-22 -15 -64 -46 -94 -71 -64 -51 -141 -92 -173 -92 -45 0 -66
11 -61 30 6 23 150 99 243 128 36 12 72 23 80 26 39 12 41 4 5 -21z m240 -3
c-3 -5 -12 -10 -20 -10 -8 0 -54 -37 -103 -83 -52 -48 -112 -94 -144 -109
-112 -53 -219 -79 -248 -59 -20 14 -11 19 49 31 77 14 126 39 221 111 111 84
137 100 185 115 50 16 68 17 60 4z m298 -46 l118 -7 -28 -19 c-15 -10 -37 -18
-48 -17 -11 1 -37 -1 -58 -6 -36 -7 -101 -1 -275 27 -75 12 -82 23 -22 31 34
5 71 4 313 -9z m-73 -114 c-44 -34 -110 -48 -260 -54 -258 -9 -199 19 100 49
85 9 156 18 159 20 2 3 9 5 15 5 6 0 0 -9 -14 -20z m50 -105 c47 -13 105 -27
129 -31 44 -6 44 -7 20 -20 -40 -22 -119 -16 -224 16 -54 17 -106 30 -116 30
-26 0 -24 14 4 28 27 14 76 8 187 -23z m-15 -215 c61 -27 130 -54 154 -61 35
-10 40 -14 25 -20 -29 -11 -86 -11 -79 1 4 6 -11 10 -37 10 -30 0 -66 11 -118
37 -41 21 -76 38 -77 38 -1 0 -4 12 -8 28 -9 32 -16 34 140 -33z m-629 -55
c83 -15 231 -59 246 -73 4 -4 -61 -7 -145 -7 -126 0 -159 4 -195 19 -28 12
-41 23 -38 32 3 7 1 16 -4 19 -19 12 -9 25 19 25 15 0 68 -7 117 -15z m-100
-72 c30 -13 80 -19 221 -23 143 -4 186 -8 197 -20 14 -13 8 -15 -47 -16 -34 0
-98 -4 -142 -8 -65 -7 -92 -5 -140 9 -70 20 -135 51 -135 65 0 13 1 13 46 -7z
m617 -39 c18 -10 65 -39 106 -67 40 -27 94 -59 120 -71 l46 -21 -39 -3 c-55
-5 -108 18 -216 93 -52 36 -101 65 -109 66 -9 1 -5 5 9 9 38 12 48 11 83 -6z
m-368 -64 c153 -5 196 -9 222 -23 47 -25 48 -36 3 -23 -29 7 -63 7 -123 -2
-46 -7 -103 -12 -128 -12 -59 0 -160 25 -230 56 -45 20 -56 30 -56 48 l0 23
61 -31 c60 -30 63 -31 251 -36z m-111 -66 c22 -4 46 -18 62 -37 26 -31 78
-127 69 -127 -3 0 4 -18 15 -41 12 -23 19 -44 16 -47 -3 -3 -6 0 -6 7 0 14
-88 71 -111 71 -29 0 -67 39 -82 85 -9 25 -14 45 -13 45 2 0 17 -22 33 -49 27
-42 36 -49 69 -53 22 -3 48 -8 59 -12 20 -8 20 -7 1 8 -11 9 -33 16 -48 16
-34 0 -61 27 -102 101 -21 38 -25 51 -13 46 8 -3 32 -9 51 -13z m389 -41 c36
-27 101 -79 144 -118 43 -38 89 -78 103 -87 l25 -18 -40 3 c-28 1 -39 6 -37
16 2 9 -4 12 -18 8 -11 -3 -18 -1 -14 4 3 5 -2 9 -10 9 -17 0 -157 126 -215
193 -46 52 -19 48 62 -10z m-257 -5 c27 -11 96 -49 154 -83 58 -34 128 -74
155 -89 l50 -27 -54 6 c-63 7 -127 37 -230 109 -77 53 -140 105 -130 106 4 0
28 -10 55 -22z m-289 -107 c20 -25 43 -78 59 -129 15 -48 39 -120 55 -160 16
-40 29 -78 29 -85 0 -6 -18 31 -38 84 -49 121 -82 168 -184 263 -85 80 -103
115 -63 127 26 8 100 -44 142 -100z m-33 -113 c69 -86 107 -146 84 -132 -62
39 -179 122 -206 148 -29 26 -72 93 -72 111 0 3 7 5 15 5 8 0 15 7 15 16 0 24
94 -60 164 -148z m-189 81 c12 -38 67 -90 172 -161 100 -68 153 -119 153 -148
0 -8 -14 -1 -32 17 -18 17 -62 45 -98 63 -36 18 -73 39 -82 47 -9 8 -21 12
-27 9 -5 -4 -13 -1 -17 5 -5 8 -3 9 6 4 7 -4 -5 16 -27 46 -42 56 -73 110 -73
129 0 18 18 11 25 -11z m20 -138 c26 -28 86 -77 134 -110 92 -63 155 -125 171
-167 15 -38 13 -38 -21 1 -17 19 -71 56 -120 81 -102 53 -182 130 -248 241
-40 67 -40 68 -18 73 18 5 25 -1 39 -32 9 -21 38 -60 63 -87z m693 76 c8 -6
46 -50 85 -97 38 -47 86 -100 106 -117 39 -36 31 -41 -27 -17 -45 18 -91 61
-145 134 -22 30 -54 70 -71 89 l-31 34 34 -7 c19 -3 41 -12 49 -19z m-923
-110 c22 -74 18 -120 -18 -231 l-32 -98 -1 108 c0 80 -6 131 -22 191 -26 97
-26 93 -7 93 9 0 18 7 22 17 6 14 9 13 25 -6 10 -13 25 -46 33 -74z m876 -157
c23 -41 60 -99 81 -127 41 -56 35 -66 -21 -32 -25 15 -31 23 -21 29 9 6 5 12
-17 24 -22 11 -45 41 -77 101 -40 73 -45 89 -35 107 l11 21 19 -24 c10 -13 37
-58 60 -99z m-563 -13 c16 -29 49 -97 72 -152 23 -55 56 -126 72 -158 l29 -58
-31 22 c-46 35 -85 102 -130 229 -63 174 -67 214 -12 117z m382 -67 c11 -21
33 -76 50 -121 16 -45 39 -97 50 -116 26 -44 25 -46 -9 -29 -37 20 -83 94
-111 181 -13 39 -31 87 -41 107 -25 49 -24 51 11 33 16 -8 39 -33 50 -55z
m13265 20 c23 -25 11 -41 -54 -69 -47 -20 -198 -51 -249 -51 l-26 0 30 31 c16
16 64 48 108 70 92 46 160 53 191 19z m-13305 -120 c24 -73 37 -227 25 -286
l-8 -39 -18 55 c-10 31 -18 87 -19 130 0 50 -8 97 -23 140 -12 36 -20 81 -19
100 l4 35 19 -35 c10 -19 28 -64 39 -100z m-141 41 c12 -33 30 -99 41 -148 22
-98 43 -178 55 -207 7 -16 5 -17 -12 -8 -11 6 -28 23 -38 38 -14 22 -15 28 -4
35 11 7 10 9 -3 9 -10 0 -17 3 -16 8 1 4 -3 16 -9 28 -13 22 -53 243 -53 288
0 40 14 24 39 -43z m6906 -12 c81 -31 80 -29 60 -90 -24 -75 -119 -257 -190
-364 -118 -177 -274 -305 -353 -289 -36 7 -69 36 -83 71 -15 40 -10 155 10
235 63 244 201 417 365 459 43 11 131 1 191 -22z m-3194 -67 c29 -74 32 -217
6 -276 -17 -38 -18 -39 -37 -21 -36 32 -72 121 -77 189 -7 84 2 127 33 161 31
34 45 24 75 -53z m-3862 -160 c3 -55 10 -104 15 -109 5 -5 6 34 3 92 -6 90 -5
97 8 78 10 -14 19 -66 25 -143 5 -66 13 -138 16 -159 5 -28 3 -38 -8 -38 -7 0
-14 7 -15 16 -4 50 -17 101 -25 101 -8 0 -5 -23 9 -75 5 -18 4 -18 -11 -6 -35
29 -58 92 -62 170 -2 42 -6 109 -9 150 l-4 74 26 -26 c24 -23 27 -35 32 -125z
m-158 -115 c-6 -54 -11 -131 -11 -172 0 -41 -4 -75 -9 -75 -14 0 -21 27 -21
76 0 24 -4 44 -10 44 -6 0 -7 -19 -4 -47 6 -46 5 -47 -10 -26 -25 34 -38 75
-26 83 7 4 7 16 -1 39 -17 48 7 208 33 222 21 11 20 15 20 -96 -1 -69 1 -75 8
-40 5 22 9 70 9 107 1 37 7 79 14 95 11 25 12 23 15 -42 2 -39 -2 -114 -7
-168z m-235 96 c3 -12 -6 -68 -21 -125 -16 -57 -30 -118 -33 -135 -6 -45 -19
-41 -32 8 -12 45 -4 93 32 198 10 30 18 68 18 85 1 30 1 30 16 11 8 -11 17
-30 20 -42z m3937 -63 c35 -79 108 -173 177 -226 l60 -47 -23 -41 c-67 -122
-208 -193 -265 -133 -41 43 -56 103 -56 227 0 116 13 188 50 275 15 35 18 38
25 20 5 -11 19 -45 32 -75z m-1767 -184 c36 -27 9 -66 -289 -420 -566 -672
-1226 -1230 -1942 -1642 -363 -208 -676 -335 -997 -403 -179 -38 -341 -23
-440 40 -189 121 -165 421 56 716 62 81 269 280 397 379 237 185 643 433 684
418 22 -9 23 -22 30 -294 7 -254 12 -287 54 -324 29 -26 109 -33 149 -12 64
33 66 44 70 421 3 267 7 346 18 367 16 31 81 65 354 181 440 187 872 332 1530
            513 146 40 274 73 286 73 11 1 29 -5 40 -13z"/>
        <path d="M20272 5573 c-13 -5 -92 -122 -145 -213 -30 -52 -77 -191 -77 -227 0
            -27 41 -73 66 -73 23 0 71 53 153 168 38 54 97 128 131 166 92 102 100 144 34
            172 -32 13 -135 18 -162 7z"/>
    </g>
</svg>
